<svg width="2135" height="1487" xmlns="http://www.w3.org/2000/svg" xmlns:xlink="http://www.w3.org/1999/xlink" xml:space="preserve" overflow="hidden"><defs><clipPath id="clip0"><rect x="870" y="803" width="2135" height="1487"/></clipPath></defs><g clip-path="url(#clip0)" transform="translate(-870 -803)"><path d="M1151 1602 1437.5 1029 2583.5 1029 2870 1602 2583.5 2175 1437.5 2175Z" stroke="#000000" stroke-width="27.5" stroke-miterlimit="8" fill="none" fill-rule="evenodd"/><path d="M1143.02 1535.82 1452.39 2153.26 1180.36 2289.57 870.984 1672.12Z" fill="#FFFFFF" fill-rule="evenodd"/><path d="M1456 2175 2014 1194 2572 2175Z" stroke="#000000" stroke-width="27.5" stroke-miterlimit="8" fill="none" fill-rule="evenodd"/><path d="M1773 2174 2012.5 1769 2252 2174Z" stroke="#000000" stroke-width="27.5" stroke-miterlimit="8" fill="none" fill-rule="evenodd"/><rect x="1608" y="1158" width="945" height="502" fill="#FFFFFF"/><path d="M1931 1627 2144.53 1627" stroke="#000000" stroke-width="27.5" stroke-miterlimit="8" fill="none" fill-rule="evenodd"/><path d="M1796 1480 1931.88 1627.33" stroke="#000000" stroke-width="27.5" stroke-miterlimit="8" fill="none" fill-rule="evenodd"/><path d="M0 0 113.236 138.629" stroke="#000000" stroke-width="27.5" stroke-miterlimit="8" fill="none" fill-rule="evenodd" transform="matrix(-1 0 0 1 2258.24 1480)"/><path d="M1810 1480 2251.62 1480" stroke="#000000" stroke-width="27.5" stroke-miterlimit="8" fill="none" fill-rule="evenodd"/><path d="M2463 1029 2571.72 2175.32" stroke="#000000" stroke-width="27.5" stroke-miterlimit="8" fill="none" fill-rule="evenodd"/><path d="M0 0 2.02461 813.305" stroke="#000000" stroke-width="27.5" stroke-miterlimit="8" fill="none" fill-rule="evenodd" transform="matrix(-1 0 0 1 1439.02 1362)"/><path d="M0 0 479.12 35.7601" stroke="#000000" stroke-width="27.5" stroke-miterlimit="8" fill="none" fill-rule="evenodd" transform="matrix(1 0 0 -1 2076 933.76)"/><path d="M1734 939.811 1410 898" stroke="#000000" stroke-width="27.5" stroke-miterlimit="8" fill="none" fill-rule="evenodd"/><path d="M0 0 359.84 655.352" stroke="#000000" stroke-width="27.5" stroke-miterlimit="8" fill="none" fill-rule="evenodd" transform="matrix(-1 0 0 1 1420.84 898)"/><path d="M2546 889 2972.66 1618.36" stroke="#000000" stroke-width="27.5" stroke-miterlimit="8" fill="none" fill-rule="evenodd"/><path d="M1155.58 1622.64 1412.59 921.689 1459.27 938.803 1202.26 1639.76Z" fill="#FFFFFF" fill-rule="evenodd"/><path d="M2905.33 1697.78 2533.5 1050.37 2576.61 1025.61 2948.44 1673.02Z" fill="#FFFFFF" fill-rule="evenodd"/><rect x="1797" y="2162" width="432" height="48.0002" fill="#FFFFFF"/><path d="M1906.83 1334.98C1833.74 1432.59 1663.95 1428.95 1527.59 1326.84" stroke="#000000" stroke-width="27.5" stroke-miterlimit="8" fill="none" fill-rule="evenodd"/><path d="M300.512 0C466.48-7.65184e-14 601.024 128.646 601.024 287.339" stroke="#000000" stroke-width="27.5" stroke-miterlimit="8" fill="none" fill-rule="evenodd" transform="matrix(0.705637 0.708573 0.708573 -0.705637 1810.91 1105.53)"/><path d="M1216.61 1563.11 1130.72 1704.22 1067.16 1551.74Z" stroke="#000000" stroke-width="20.625" stroke-miterlimit="8" fill="none" fill-rule="evenodd"/><path d="M1124.41 1621.58 1285.24 1393.39 1314.43 1413.97 1153.6 1642.16Z" fill="#FFFFFF" fill-rule="evenodd"/><path d="M1231.37 1713.6 1557.61 1042.06 1602.33 1063.79 1276.08 1735.32Z" fill="#FFFFFF" fill-rule="evenodd"/><path d="M1326.03 1671.08 1240.14 1812.19 1176.58 1659.71Z" stroke="#000000" stroke-width="20.625" stroke-miterlimit="8" fill="none" fill-rule="evenodd"/><path d="M1335.31 1813.07 1458.67 1559.17 1541.97 1599.63 1418.62 1853.54Z" fill="#FFFFFF" fill-rule="evenodd"/><path d="M1429.98 1770.55 1344.08 1911.66 1280.53 1759.18Z" stroke="#000000" stroke-width="20.625" stroke-miterlimit="8" fill="none" fill-rule="evenodd"/><path d="M1299.5 1749.84 1459.43 1758.81 1458.08 1782.94 1298.14 1773.97Z" fill="#FFFFFF" fill-rule="evenodd"/><path d="M1193.4 1649.55 1353.33 1658.52 1351.98 1682.64 1192.04 1673.67Z" fill="#FFFFFF" fill-rule="evenodd"/><path d="M1083.86 1540.6 1243.8 1549.57 1242.44 1573.7 1082.51 1564.73Z" fill="#FFFFFF" fill-rule="evenodd"/><path d="M2606.87 1956.98 2829.66 1852.12 2936.71 2079.57 2713.92 2184.43Z" fill="#FFFFFF" fill-rule="evenodd"/><path d="M2550.17 1731.45 2874.57 1578.77 3004.15 1854.08 2679.75 2006.76Z" fill="#FFFFFF" fill-rule="evenodd"/><path d="M2968.66 1624.95 2909.73 1779.28 2819.62 1640.83Z" stroke="#000000" stroke-width="20.625" stroke-miterlimit="8" fill="none" fill-rule="evenodd"/><path d="M2794.72 1627.37 2951.62 1615.07 2953.86 1643.61 2796.96 1655.92Z" fill="#FFFFFF" fill-rule="evenodd"/><path d="M2829.31 1664.82 2770.39 1819.14 2680.28 1680.69Z" stroke="#000000" stroke-width="20.625" stroke-miterlimit="8" fill="none" fill-rule="evenodd"/><path d="M2655.38 1667.24 2812.28 1654.93 2814.52 1683.48 2657.61 1695.78Z" fill="#FFFFFF" fill-rule="evenodd"/><path d="M2695.11 1695.76 2636.18 1850.08 2546.07 1711.63Z" stroke="#000000" stroke-width="20.625" stroke-miterlimit="8" fill="none" fill-rule="evenodd"/><path d="M2567.62 1694.54 2678.07 1685.87 2680.31 1714.42 2569.86 1723.08Z" fill="#FFFFFF" fill-rule="evenodd"/><path d="M2426.25 1708.8 2536.49 1697.79 2539.34 1726.29 2429.09 1737.29Z" fill="#FFFFFF" fill-rule="evenodd"/><path d="M2474.42 1624.95 2654.6 1606.96 2665 1711.09 2484.82 1729.08Z" fill="#FFFFFF" fill-rule="evenodd"/><path d="M2568.11 1942.24 2813.91 1927.73 2828.73 2178.68 2582.93 2193.19Z" fill="#FFFFFF" fill-rule="evenodd"/><path d="M2749.21 1761.25 2809.29 1615.78 2835.76 1626.72 2775.67 1772.18Z" fill="#FFFFFF" fill-rule="evenodd"/><path d="M2618.68 1782.96 2678.76 1637.49 2705.23 1648.42 2645.14 1793.89Z" fill="#FFFFFF" fill-rule="evenodd"/><path d="M1858.15 1009.4 1919.28 841.815 2007.51 996.854Z" stroke="#000000" stroke-width="20.625" stroke-miterlimit="8" fill="none" fill-rule="evenodd"/><path d="M1796.08 1034.04 1820.66 857.355 1939.47 990.413Z" stroke="#000000" stroke-width="20.625" stroke-miterlimit="8" fill="none" fill-rule="evenodd"/><path d="M2012.18 999.246 2100.91 844.495 2161.5 1012.28Z" stroke="#000000" stroke-width="20.625" stroke-miterlimit="8" fill="none" fill-rule="evenodd"/><path d="M1932.28 983.022 2021.01 828.271 2081.59 996.052Z" stroke="#000000" stroke-width="20.625" stroke-miterlimit="8" fill="none" fill-rule="evenodd"/><path d="M1721.4 1028.49 1745.98 851.803 1864.79 984.862Z" stroke="#000000" stroke-width="20.625" stroke-miterlimit="8" fill="none" fill-rule="evenodd"/><rect x="1421" y="1004" width="1171" height="293" fill="#FFFFFF"/><path d="M1612.01 970.693 2205.75 939.953 2212.58 1071.88 1618.84 1102.62Z" fill="#FFFFFF" fill-rule="evenodd"/><path d="M1756.22 937.61 2124.85 918.525 2131.68 1050.46 1763.05 1069.54Z" fill="#FFFFFF" fill-rule="evenodd"/></g></svg>