<svg width="2280" height="1552" xmlns="http://www.w3.org/2000/svg" xmlns:xlink="http://www.w3.org/1999/xlink" xml:space="preserve" overflow="hidden"><defs><clipPath id="clip0"><rect x="565" y="442" width="2280" height="1552"/></clipPath></defs><g clip-path="url(#clip0)" transform="translate(-565 -442)"><path d="M0 0 358.201 632.598" stroke="#FFFFFF" stroke-width="77.9167" stroke-miterlimit="8" fill="none" fill-rule="evenodd" transform="matrix(-1 0 0 1 962.201 642)"/><path d="M2293 655 2797.39 1288.35" stroke="#FFFFFF" stroke-width="77.9167" stroke-miterlimit="8" fill="none" fill-rule="evenodd"/><path d="M0 0 266.934 7.70325" stroke="#FFFFFF" stroke-width="77.9167" stroke-miterlimit="8" fill="none" fill-rule="evenodd" transform="matrix(-1 0 0 1 1186.93 652)"/><path d="M0 0 109.503 118.28" stroke="#FFFFFF" stroke-width="77.9167" stroke-miterlimit="8" fill="none" fill-rule="evenodd" transform="matrix(-1 0 0 1 1410.5 545)"/><path d="M1390 510 1524.09 624.89" stroke="#FFFFFF" stroke-width="77.9167" stroke-miterlimit="8" fill="none" fill-rule="evenodd"/><path d="M0 0 97.2616 106.839" stroke="#FFFFFF" stroke-width="77.9167" stroke-miterlimit="8" fill="none" fill-rule="evenodd" transform="matrix(-1 0 0 1 1600.26 483)"/><path d="M1558 493 1742.65 613.87" stroke="#FFFFFF" stroke-width="77.9167" stroke-miterlimit="8" fill="none" fill-rule="evenodd"/><path d="M0 0 142.071 149.451" stroke="#FFFFFF" stroke-width="77.9167" stroke-miterlimit="8" fill="none" fill-rule="evenodd" transform="matrix(-1 0 0 1 1836.07 469)"/><path d="M1804 493 1908.08 595.841" stroke="#FFFFFF" stroke-width="77.9167" stroke-miterlimit="8" fill="none" fill-rule="evenodd"/><path d="M2320.74 677.54 2051 607" stroke="#FFFFFF" stroke-width="77.9167" stroke-miterlimit="8" fill="none" fill-rule="evenodd"/><path d="M611 1238 656.02 1476.07" stroke="#FFFFFF" stroke-width="77.9167" stroke-miterlimit="8" fill="none" fill-rule="evenodd"/><path d="M745 1343 910.866 1489.89" stroke="#FFFFFF" stroke-width="77.9167" stroke-miterlimit="8" fill="none" fill-rule="evenodd"/><path d="M947 1409 1072.84 1552.21" stroke="#FFFFFF" stroke-width="77.9167" stroke-miterlimit="8" fill="none" fill-rule="evenodd"/><path d="M0 0 153.555 156.447" stroke="#FFFFFF" stroke-width="77.9167" stroke-miterlimit="8" fill="none" fill-rule="evenodd" transform="matrix(1 0 0 -1 641 1499.45)"/><path d="M0 0 108.517 71.8313" stroke="#FFFFFF" stroke-width="77.9167" stroke-miterlimit="8" fill="none" fill-rule="evenodd" transform="matrix(1 0 0 -1 872 1499.83)"/><path d="M1517.64 1048.27C1444.55 1145.88 1274.76 1142.24 1138.39 1040.13" stroke="#FFFFFF" stroke-width="77.9167" stroke-miterlimit="8" fill="none" fill-rule="evenodd"/><path d="M300.512 0C466.48-7.65184e-14 601.024 128.646 601.024 287.339" stroke="#FFFFFF" stroke-width="77.9167" stroke-miterlimit="8" fill="none" fill-rule="evenodd" transform="matrix(0.705637 0.708573 0.708573 -0.705637 1507.33 821.492)"/><path d="M1042 1225 1076.95 1900.58" stroke="#FFFFFF" stroke-width="77.9167" stroke-miterlimit="8" fill="none" fill-rule="evenodd"/><path d="M0 0 69.2459 742.163" stroke="#FFFFFF" stroke-width="77.9167" stroke-miterlimit="8" fill="none" fill-rule="evenodd" transform="matrix(-1 0 0 1 2264.25 1200)"/><path d="M0 0 144.697 174.03" stroke="#FFFFFF" stroke-width="77.9167" stroke-miterlimit="8" fill="none" fill-rule="evenodd" transform="matrix(-1 0 0 1 2814.7 1247)"/><path d="M2598 1330 2715.6 1418.83" stroke="#FFFFFF" stroke-width="77.9167" stroke-miterlimit="8" fill="none" fill-rule="evenodd"/><path d="M0 0 123.633 159.7" stroke="#FFFFFF" stroke-width="77.9167" stroke-miterlimit="8" fill="none" fill-rule="evenodd" transform="matrix(-1 0 0 1 2645.63 1321)"/><path d="M2432 1395 2522.57 1438.26" stroke="#FFFFFF" stroke-width="77.9167" stroke-miterlimit="8" fill="none" fill-rule="evenodd"/><path d="M0 0 112.076 164.052" stroke="#FFFFFF" stroke-width="77.9167" stroke-miterlimit="8" fill="none" fill-rule="evenodd" transform="matrix(-1 0 0 1 2475.08 1374)"/><path d="M2225 1395 2356.29 1487.44" stroke="#FFFFFF" stroke-width="77.9167" stroke-miterlimit="8" fill="none" fill-rule="evenodd"/><path d="M1776 1269 2217.1 1785.13" stroke="#FFFFFF" stroke-width="77.9167" stroke-miterlimit="8" fill="none" fill-rule="evenodd"/><path d="M0 0 394.736 659.148" stroke="#FFFFFF" stroke-width="77.9167" stroke-miterlimit="8" fill="none" fill-rule="evenodd" transform="matrix(-1 0 0 1 1461.74 1269)"/><path d="M0 0 352.807 625.452" stroke="#FFFFFF" stroke-width="77.9167" stroke-miterlimit="8" fill="none" fill-rule="evenodd" transform="matrix(-1 0 0 1 1780.81 1306)"/><path d="M1459 1321 1939.17 1927.64" stroke="#FFFFFF" stroke-width="77.9167" stroke-miterlimit="8" fill="none" fill-rule="evenodd"/><path d="M0 0 147.597 2.93947" stroke="#FFFFFF" stroke-width="77.9167" stroke-miterlimit="8" fill="none" fill-rule="evenodd" transform="matrix(1 0 0 -1 1553 1467.94)"/><path d="M1095 1909 1458.01 1914.17" stroke="#FFFFFF" stroke-width="77.9167" stroke-miterlimit="8" fill="none" fill-rule="evenodd"/><path d="M0 0 375.993 2.79728" stroke="#FFFFFF" stroke-width="77.9167" stroke-miterlimit="8" fill="none" fill-rule="evenodd" transform="matrix(1 0 0 -1 1428 1285.8)"/><path d="M0 0 332.011 10.3421" stroke="#FFFFFF" stroke-width="77.9167" stroke-miterlimit="8" fill="none" fill-rule="evenodd" transform="matrix(1 0 0 -1 1903 1915.34)"/><path d="M0 0 79.4891 239.148" stroke="#FFFFFF" stroke-width="77.9167" stroke-miterlimit="8" fill="none" fill-rule="evenodd" transform="matrix(-1 0 0 1 1152.49 904)"/><path d="M2087 904 2201.21 1138.73" stroke="#FFFFFF" stroke-width="77.9167" stroke-miterlimit="8" fill="none" fill-rule="evenodd"/><path d="M0 0 113.762 108.94" stroke="#FFFFFF" stroke-width="77.9167" stroke-miterlimit="8" fill="none" fill-rule="evenodd" transform="matrix(-1 0 0 1 1266.76 554)"/><path d="M1219 555 1348.68 663.94" stroke="#FFFFFF" stroke-width="77.9167" stroke-miterlimit="8" fill="none" fill-rule="evenodd"/><path d="M0 0 113.762 108.94" stroke="#FFFFFF" stroke-width="77.9167" stroke-miterlimit="8" fill="none" fill-rule="evenodd" transform="matrix(-1 0 0 1 1985.76 507)"/><path d="M1940 508 2069.68 616.94" stroke="#FFFFFF" stroke-width="77.9167" stroke-miterlimit="8" fill="none" fill-rule="evenodd"/><path d="M1843.33 1856.82C1770.25 1954.43 1600.45 1950.79 1464.09 1848.68" stroke="#FFFFFF" stroke-width="77.9167" stroke-miterlimit="8" fill="none" fill-rule="evenodd"/></g></svg>